<svg xmlns="http://www.w3.org/2000/svg" width="800" height="500" viewBox="0 0 800 500">
<rect width="800" height="500" fill="#dceae9"/>
<g stroke="#eef5f4" stroke-width="28" fill="none"><path d="M-30 110 830 340M70-30 580 530M420-30 60 530M710-30 370 530"/></g>
<path d="M0 390C180 290 240 420 470 310S650 160 800 220" stroke="#bdd9e6" stroke-width="60" fill="none"/>
<rect x="268" y="20" width="264" height="462" rx="31" fill="#14283a"/>
<rect x="278" y="31" width="244" height="441" rx="23" fill="#f7faf9"/>
<rect x="350" y="37" width="100" height="18" rx="9" fill="#14283a"/>
<g font-family="Arial,sans-serif"><text x="298" y="86" font-size="23" font-weight="bold" fill="#133c49">eScape</text><text x="298" y="107" font-size="10" fill="#64818a">Find your quieter route.</text></g>
<rect x="289" y="122" width="222" height="242" rx="9" fill="#e7efeb"/>
<g fill="#d1e3d8"><rect x="306" y="140" width="42" height="58" rx="10"/><rect x="420" y="233" width="66" height="70" rx="12"/><rect x="306" y="290" width="58" height="49" rx="10"/></g>
<g stroke="#fff" stroke-width="13" fill="none"><path d="m290 200 220 30M358 124l-20 240m120-240-20 240M289 289l220 30"/></g>
<path d="m340 317 11-102 95 13 5-52" stroke="#367fc1" stroke-width="5" stroke-linejoin="round" fill="none"/>
<circle cx="340" cy="317" r="8" fill="#367fc1" stroke="#fff" stroke-width="3"/>
<path d="M451 156c-23 0-20 27 0 43 20-16 23-43 0-43" fill="#205868"/><circle cx="451" cy="174" r="5" fill="#fff"/>
<rect x="292" y="378" width="216" height="70" rx="9" fill="#e5efed"/>
<g font-family="Arial,sans-serif"><text x="307" y="402" font-size="13" font-weight="bold" fill="#234b55">A little room to breathe</text><text x="307" y="423" font-size="10" fill="#55787e">Quiet garden · 8 min walk</text></g>
<g fill="#477881" font-family="Arial,sans-serif"><text x="48" y="420" font-size="12" letter-spacing="2">LESS NOISE.</text><text x="48" y="443" font-size="12" letter-spacing="2">MORE SPACE.</text></g>
</svg>
